<mxfile host="65bd71144e">
    <diagram id="edPNGndG1BphoQEE9MOY" name="Page-1">
        <mxGraphModel dx="814" dy="575" grid="1" gridSize="10" guides="1" tooltips="1" connect="1" arrows="1" fold="1" page="1" pageScale="1" pageWidth="827" pageHeight="1169" math="0" shadow="0">
            <root>
                <mxCell id="0"/>
                <mxCell id="1" parent="0"/>
                <mxCell id="15" value="i = i + 1" style="rounded=0;whiteSpace=wrap;html=1;fontSize=17;" vertex="1" parent="1">
                    <mxGeometry x="104" y="820" width="120" height="60" as="geometry"/>
                </mxCell>
                <mxCell id="70" value="" style="edgeStyle=none;html=1;fontSize=17;" edge="1" source="71" target="73" parent="1">
                    <mxGeometry relative="1" as="geometry"/>
                </mxCell>
                <mxCell id="71" value="начало" style="ellipse;whiteSpace=wrap;html=1;fontSize=17;" vertex="1" parent="1">
                    <mxGeometry x="108.88" y="20" width="104" height="60" as="geometry"/>
                </mxCell>
                <mxCell id="72" value="" style="edgeStyle=none;html=1;fontSize=17;" edge="1" source="73" target="75" parent="1">
                    <mxGeometry relative="1" as="geometry"/>
                </mxCell>
                <mxCell id="73" value="arr = string array{}&lt;br style=&quot;font-size: 17px&quot;&gt;i = 0, j = 0&lt;br&gt;limit = 3&lt;br style=&quot;font-size: 17px&quot;&gt;size = length(arr)" style="rounded=0;whiteSpace=wrap;html=1;fontSize=17;" vertex="1" parent="1">
                    <mxGeometry x="68.13" y="110" width="185.5" height="100" as="geometry"/>
                </mxCell>
                <mxCell id="74" value="" style="edgeStyle=none;html=1;fontSize=17;" edge="1" source="75" target="78" parent="1">
                    <mxGeometry relative="1" as="geometry"/>
                </mxCell>
                <mxCell id="75" value="определение размера будущего нового массива&lt;br&gt;newArr = new string array{}" style="rounded=0;whiteSpace=wrap;html=1;fontSize=17;" vertex="1" parent="1">
                    <mxGeometry x="69.38" y="250" width="184.25" height="110" as="geometry"/>
                </mxCell>
                <mxCell id="76" value="" style="edgeStyle=none;html=1;fontSize=17;" edge="1" source="78" target="81" parent="1">
                    <mxGeometry relative="1" as="geometry"/>
                </mxCell>
                <mxCell id="77" value="" style="edgeStyle=none;html=1;fontSize=17;" edge="1" source="78" target="90" parent="1">
                    <mxGeometry relative="1" as="geometry"/>
                </mxCell>
                <mxCell id="78" value="i &amp;lt; size?" style="rhombus;whiteSpace=wrap;html=1;fontSize=17;" vertex="1" parent="1">
                    <mxGeometry x="110" y="400" width="103" height="80" as="geometry"/>
                </mxCell>
                <mxCell id="79" value="" style="edgeStyle=none;html=1;fontSize=17;" edge="1" source="81" target="84" parent="1">
                    <mxGeometry relative="1" as="geometry"/>
                </mxCell>
                <mxCell id="80" style="edgeStyle=none;html=1;fontSize=17;" edge="1" source="81" parent="1">
                    <mxGeometry relative="1" as="geometry">
                        <mxPoint x="222" y="850" as="targetPoint"/>
                        <Array as="points">
                            <mxPoint x="308" y="555"/>
                            <mxPoint x="308" y="850"/>
                        </Array>
                    </mxGeometry>
                </mxCell>
                <mxCell id="81" value="arr[i] length &amp;lt;= limit?" style="rhombus;whiteSpace=wrap;html=1;fontSize=17;" vertex="1" parent="1">
                    <mxGeometry x="56.5" y="515" width="210" height="80" as="geometry"/>
                </mxCell>
                <mxCell id="82" value="Yes" style="text;html=1;align=center;verticalAlign=middle;resizable=0;points=[];autosize=1;strokeColor=none;fillColor=none;fontSize=17;" vertex="1" parent="1">
                    <mxGeometry x="158" y="480" width="40" height="30" as="geometry"/>
                </mxCell>
                <mxCell id="83" value="" style="edgeStyle=none;html=1;fontSize=17;" edge="1" source="84" target="87" parent="1">
                    <mxGeometry relative="1" as="geometry"/>
                </mxCell>
                <mxCell id="84" value="newArr[j] = arr[i]" style="rounded=0;whiteSpace=wrap;html=1;fontSize=17;" vertex="1" parent="1">
                    <mxGeometry x="102" y="635" width="120" height="60" as="geometry"/>
                </mxCell>
                <mxCell id="85" style="edgeStyle=none;html=1;fontSize=17;entryX=0;entryY=0.5;entryDx=0;entryDy=0;" edge="1" target="78" parent="1">
                    <mxGeometry relative="1" as="geometry">
                        <mxPoint x="78" y="560" as="targetPoint"/>
                        <mxPoint x="102" y="850" as="sourcePoint"/>
                        <Array as="points">
                            <mxPoint x="18" y="850"/>
                            <mxPoint x="18" y="770"/>
                            <mxPoint x="18" y="620"/>
                            <mxPoint x="18" y="440"/>
                        </Array>
                    </mxGeometry>
                </mxCell>
                <mxCell id="86" value="" style="edgeStyle=none;html=1;fontSize=17;" edge="1" source="87" parent="1">
                    <mxGeometry relative="1" as="geometry">
                        <mxPoint x="162" y="820" as="targetPoint"/>
                    </mxGeometry>
                </mxCell>
                <mxCell id="87" value="j = j + 1" style="rounded=0;whiteSpace=wrap;html=1;fontSize=17;" vertex="1" parent="1">
                    <mxGeometry x="102" y="730" width="120" height="60" as="geometry"/>
                </mxCell>
                <mxCell id="88" value="Yes" style="text;html=1;align=center;verticalAlign=middle;resizable=0;points=[];autosize=1;strokeColor=none;fillColor=none;fontSize=17;" vertex="1" parent="1">
                    <mxGeometry x="158" y="595" width="40" height="30" as="geometry"/>
                </mxCell>
                <mxCell id="89" value="No" style="text;html=1;align=center;verticalAlign=middle;resizable=0;points=[];autosize=1;strokeColor=none;fillColor=none;fontSize=17;" vertex="1" parent="1">
                    <mxGeometry x="254" y="530" width="40" height="30" as="geometry"/>
                </mxCell>
                <mxCell id="93" value="" style="edgeStyle=none;html=1;fontSize=17;" edge="1" parent="1" source="90" target="92">
                    <mxGeometry relative="1" as="geometry"/>
                </mxCell>
                <mxCell id="90" value="вывод исходного массива&lt;br&gt;вывод нового массива" style="shape=parallelogram;perimeter=parallelogramPerimeter;whiteSpace=wrap;html=1;fixedSize=1;fontSize=17;" vertex="1" parent="1">
                    <mxGeometry x="288" y="395" width="240" height="90" as="geometry"/>
                </mxCell>
                <mxCell id="91" value="No" style="text;html=1;align=center;verticalAlign=middle;resizable=0;points=[];autosize=1;strokeColor=none;fillColor=none;fontSize=17;" vertex="1" parent="1">
                    <mxGeometry x="222" y="410" width="40" height="30" as="geometry"/>
                </mxCell>
                <mxCell id="92" value="конец" style="ellipse;whiteSpace=wrap;html=1;fontSize=17;" vertex="1" parent="1">
                    <mxGeometry x="580" y="405" width="100" height="70" as="geometry"/>
                </mxCell>
            </root>
        </mxGraphModel>
    </diagram>
</mxfile>